<svg xmlns="http://www.w3.org/2000/svg" xmlns:svg="http://www.w3.org/2000/svg" id="Warstwa_1" width="160" height="90" x="0" y="0" version="1.1" viewBox="0 0 160 90" xml:space="preserve"><metadata id="metadata35"/><style id="style10" type="text/css">.st0{fill:none;stroke:#b3b3b3;stroke-width:4;stroke-miterlimit:10}.st1{fill:#b3b3b3}</style><path id="path12" d="M 134,85 H 26 c -3.3,0 -6,-2.7 -6,-6 V 11 c 0,-3.3 2.7,-6 6,-6 h 108 c 3.3,0 6,2.7 6,6 v 68 c 0,3.3 -2.7,6 -6,6 z" class="st0"/><g id="g16" transform="translate(0,-15)"><path id="path14" d="M 140.9,95.7 V 82.3 c 0,-0.8 -0.3,-1.5 -0.8,-2.1 l -34.5,-42 c -1.4,-1.6 -3.9,-1.6 -5.2,0 L 70.1,76.5 c -1.3,1.7 -3.9,1.7 -5.2,0 L 51.5,60.2 c -1.4,-1.7 -3.9,-1.6 -5.2,0.1 l -26,33.3 c -1.7,2.2 -0.1,5.4 2.6,5.4 h 114.7 c 1.8,0 3.3,-1.5 3.3,-3.3 z" class="st1"/></g><g id="g20" transform="translate(0,-15)"><circle id="circle18" cx="47.5" cy="42.5" r="7.5" class="st1"/></g></svg>